<svg xmlns="http://www.w3.org/2000/svg" viewBox="0 0 800 500" width="800" height="500" preserveAspectRatio="xMidYMid slice">
  <rect width="800" height="500" fill="#f2f0eb"/>
  <!-- Stacked documents, fanned -->
  <g stroke="#d8d3c7" stroke-width="2">
    <rect x="150" y="120" width="300" height="330" fill="#ffffff" transform="rotate(-7 300 285)"/>
    <rect x="180" y="100" width="300" height="330" fill="#ffffff" transform="rotate(-2 330 265)"/>
    <rect x="210" y="90" width="300" height="330" fill="#ffffff" transform="rotate(3 360 255)"/>
  </g>
  <g stroke="#c9c3b4" stroke-width="3" transform="rotate(3 360 255)">
    <path d="M240 140h240M240 176h240M240 212h200M240 248h240M240 284h180M240 320h240"/>
  </g>
  <!-- Magnifying glass -->
  <g transform="translate(540 300)">
    <circle cx="0" cy="0" r="98" fill="#ffffff" fill-opacity="0.55" stroke="#111111" stroke-width="10"/>
    <circle cx="0" cy="0" r="98" fill="none" stroke="#C8A75B" stroke-width="4"/>
    <path d="M70 70l70 70" stroke="#111111" stroke-width="16" stroke-linecap="round"/>
    <g stroke="#8f7335" stroke-width="5" stroke-linecap="round">
      <path d="M-44-16h88M-44 8h64M-44 32h88"/>
    </g>
  </g>
  <rect x="20" y="20" width="760" height="460" fill="none" stroke="#C8A75B" stroke-opacity="0.3" stroke-width="2"/>
</svg>
