<svg xmlns="http://www.w3.org/2000/svg" viewBox="0 0 800 600" width="800" height="600" preserveAspectRatio="xMidYMid slice">
  <rect width="800" height="600" fill="#241f18"/>
  <!-- Shelving unit -->
  <rect x="40" y="40" width="720" height="480" fill="#3a3125"/>
  <g fill="#2b2419">
    <rect x="60" y="60" width="680" height="86"/>
    <rect x="60" y="166" width="680" height="86"/>
    <rect x="60" y="272" width="680" height="86"/>
    <rect x="60" y="378" width="680" height="86"/>
  </g>
  <!-- Bound reports, alternating spine tones -->
  <g>
    <g fill="#8f7335"><rect x="70" y="70" width="22" height="66"/><rect x="122" y="70" width="26" height="66"/><rect x="196" y="70" width="22" height="66"/><rect x="252" y="70" width="28" height="66"/><rect x="330" y="70" width="22" height="66"/><rect x="404" y="70" width="26" height="66"/><rect x="482" y="70" width="22" height="66"/><rect x="556" y="70" width="28" height="66"/><rect x="634" y="70" width="22" height="66"/><rect x="694" y="70" width="26" height="66"/></g>
    <g fill="#6d5a2c"><rect x="98" y="70" width="20" height="66"/><rect x="154" y="70" width="38" height="66"/><rect x="222" y="70" width="26" height="66"/><rect x="284" y="70" width="42" height="66"/><rect x="356" y="70" width="44" height="66"/><rect x="434" y="70" width="44" height="66"/><rect x="508" y="70" width="44" height="66"/><rect x="588" y="70" width="42" height="66"/><rect x="660" y="70" width="30" height="66"/></g>
    <g fill="#7d6a3b"><rect x="70" y="176" width="196" height="66"/><rect x="276" y="176" width="176" height="66"/><rect x="462" y="176" width="150" height="66"/><rect x="622" y="176" width="98" height="66"/></g>
    <g fill="#5f5230"><rect x="70" y="282" width="140" height="66"/><rect x="220" y="282" width="210" height="66"/><rect x="440" y="282" width="130" height="66"/><rect x="580" y="282" width="140" height="66"/></g>
    <g fill="#8f7335"><rect x="70" y="388" width="170" height="66"/><rect x="250" y="388" width="160" height="66"/><rect x="420" y="388" width="180" height="66"/><rect x="610" y="388" width="110" height="66"/></g>
  </g>
  <g stroke="#4c4130" stroke-width="4"><path d="M60 146h680M60 252h680M60 358h680M60 464h680"/></g>
  <!-- Reading lamp glow -->
  <ellipse cx="400" cy="520" rx="260" ry="60" fill="#C8A75B" fill-opacity="0.10"/>
  <rect y="520" width="800" height="80" fill="#1a160f"/>
</svg>
